<?xml version="1.0" encoding="UTF-8" standalone="no"?>
<!DOCTYPE svg PUBLIC "-//W3C//DTD SVG 1.1//EN"
 "http://www.w3.org/Graphics/SVG/1.1/DTD/svg11.dtd">
<!-- Generated by graphviz version 2.38.0 (20140413.2041)
 -->
<!-- Title: %3 Pages: 1 -->
<svg width="302pt" height="103pt"
 viewBox="0.00 0.00 301.85 103.40" xmlns="http://www.w3.org/2000/svg" xmlns:xlink="http://www.w3.org/1999/xlink">
<g id="graph0" class="graph" transform="scale(1 1) rotate(0) translate(4 99.397)">
<title>%3</title>
<polygon fill="white" stroke="none" points="-4,4 -4,-99.397 297.849,-99.397 297.849,4 -4,4"/>
<!-- &#45;1 -->
<g id="node1" class="node"><title>&#45;1</title>
<polygon fill="lightgray" stroke="black" points="24,-89.5477 0,-89.5477 0,-71.5477 24,-71.5477 24,-89.5477"/>
<text text-anchor="middle" x="12" y="-78.3477" font-family="Times New Roman,serif" font-size="9.00">&#45;1</text>
</g>
<!-- &#45;2 -->
<g id="node2" class="node"><title>&#45;2</title>
<polygon fill="lightgray" stroke="black" points="66,-89.5477 42,-89.5477 42,-71.5477 66,-71.5477 66,-89.5477"/>
<text text-anchor="middle" x="54" y="-78.3477" font-family="Times New Roman,serif" font-size="9.00">&#45;2</text>
</g>
<!-- 2 -->
<g id="node7" class="node"><title>2</title>
<ellipse fill="lightblue" stroke="black" cx="54" cy="-14.8492" rx="14.7" ry="14.7"/>
<text text-anchor="middle" x="54" y="-12.6492" font-family="Times New Roman,serif" font-size="9.00">2</text>
</g>
<!-- &#45;2&#45;&gt;2 -->
<g id="edge1" class="edge"><title>&#45;2&#45;&gt;2</title>
<path fill="none" stroke="green" stroke-width="0.278696" d="M54,-71.4803C54,-63.565 54,-51.0967 54,-39.9685"/>
<polygon fill="green" stroke="green" stroke-width="0.278696" points="57.5001,-39.902 54,-29.9021 50.5001,-39.9021 57.5001,-39.902"/>
</g>
<!-- &#45;3 -->
<g id="node3" class="node"><title>&#45;3</title>
<polygon fill="lightgray" stroke="black" points="108,-89.5477 84,-89.5477 84,-71.5477 108,-71.5477 108,-89.5477"/>
<text text-anchor="middle" x="96" y="-78.3477" font-family="Times New Roman,serif" font-size="9.00">&#45;3</text>
</g>
<!-- &#45;4 -->
<g id="node4" class="node"><title>&#45;4</title>
<polygon fill="lightgray" stroke="black" points="150,-89.5477 126,-89.5477 126,-71.5477 150,-71.5477 150,-89.5477"/>
<text text-anchor="middle" x="138" y="-78.3477" font-family="Times New Roman,serif" font-size="9.00">&#45;4</text>
</g>
<!-- 0 -->
<g id="node5" class="node"><title>0</title>
<ellipse fill="lightblue" stroke="black" cx="183" cy="-80.5477" rx="14.7" ry="14.7"/>
<text text-anchor="middle" x="183" y="-78.3477" font-family="Times New Roman,serif" font-size="9.00">0</text>
</g>
<!-- 1 -->
<g id="node6" class="node"><title>1</title>
<ellipse fill="lightblue" stroke="black" cx="231" cy="-80.5477" rx="14.7" ry="14.7"/>
<text text-anchor="middle" x="231" y="-78.3477" font-family="Times New Roman,serif" font-size="9.00">1</text>
</g>
<!-- 3 -->
<g id="node8" class="node"><title>3</title>
<ellipse fill="lightblue" stroke="black" cx="279" cy="-80.5477" rx="14.7" ry="14.7"/>
<text text-anchor="middle" x="279" y="-78.3477" font-family="Times New Roman,serif" font-size="9.00">3</text>
</g>
</g>
</svg>
